<svg id="Laag_1" data-name="Laag 1" xmlns="http://www.w3.org/2000/svg" viewBox="0 0 221 221"><title>Logo</title><path d="M111.08,207.92c-13.62,0-27.25.34-40.86-.06-31-.93-54.79-24.94-55.23-56.06q-.59-40.31,0-80.62A56.23,56.23,0,0,1,70.62,15.42q40.86-.69,81.73,0a55.78,55.78,0,0,1,55,55q.72,41.4,0,82.83c-.56,29.91-24.27,53.49-54.32,54.5-14,.48-28,.09-42,.09Zm.2-144.2c-27.12,0-48.19,21.34-48,48.54a48,48,0,1,0,48-48.54Zm61-3.92c0-5.33-3.5-9.13-8.08-9.16-5.22,0-8.08,3-8.69,7.9-.56,4.61,4.19,9.74,8.67,9.18C169,67.12,172.06,64.35,172.25,59.8Z"/><path d="M72.1,111.21A39.24,39.24,0,1,1,110.52,151C88.7,150.56,71.9,133.17,72.1,111.21Z"/></svg>