<svg id="Laag_1" data-name="Laag 1" xmlns="http://www.w3.org/2000/svg" viewBox="0 0 221 221"><title>Logo</title><path d="M110.5,203.59c-22.1,0-44.2.16-66.29-.05-16.36-.16-24.3-8.2-24.34-24.66q-.18-67.4,0-134.79c.05-16.06,8.46-24.3,24.75-24.35q67.4-.19,134.78,0c15.81.05,24.18,8,24.25,23.65q.36,68.49,0,137c-.08,15.13-8.28,23-23.54,23.13C156.9,203.76,133.7,203.58,110.5,203.59Zm10.29-73.33v63.88h22.06V130.43c19.35-2.49,21.25-4.8,19.42-22.64l-18.88-.88c-2-17.3-2-17.3,20.52-23.18-1.16-6.38,5-14.7-5.55-18.58-18.09-6.7-34.87,3.51-37.05,22.72-.69,6.09-.8,12.25-1.19,18.77l-16.26,1.54v20.26Z"/></svg>