<svg id="Laag_1" data-name="Laag 1" xmlns="http://www.w3.org/2000/svg" viewBox="0 0 221 221"><title>Logo</title><path d="M111.75,19.69c22.1,0,44.2-.07,66.29,0,17.85.08,25.77,7.72,25.83,25.47q.24,66.29,0,132.58c0,18.06-7.66,25.74-25.42,25.79q-66.3.16-132.58,0c-18.37,0-25.86-7.79-25.89-26.48q-.09-65.73,0-131.47c0-17.76,7.94-25.79,25.47-25.89C67.56,19.6,89.66,19.69,111.75,19.69ZM91,89.27v83h25.52c0-5.44,0-10.14,0-14.84.11-10.68-.23-21.39.58-32,.67-8.82,6.45-13.59,14.46-13.59s13.58,4.63,14.77,13.38c.74,5.44.58,11,.63,16.53.09,10.14,0,20.27,0,30.4h25.59c0-18.85,1-36.9-.27-54.79-1.19-17.32-14.29-28.16-31.56-27-7.74.54-15.28,4-23,6.19C112.73,82.92,100.65,93,91,89.27Zm-14.73,83V90.6H51.45v81.7ZM63.67,76.67c7,.06,12.9-4.71,13.12-10.6C77,60,71.66,55.24,64.37,55c-8.09-.31-13.66,4.17-13.49,10.85C51,71.9,56.59,76.61,63.67,76.67Z"/></svg>